{"title":"Historia de La Meva Mort, Albert Serra, 2013","uid":10116178,"size":2118568259,"categoryP":"video","categoryS":"movies","magnet":"?xt=urn:btih:9cdea62f862e245084eb4a52473baf35032e9116&amp;dn=Historia+de+La+Meva+Mort%2C+Albert+Serra%2C+2013&amp;tr=udp%3A%2F%2Ftracker.openbittorrent.com%3A80&amp;tr=udp%3A%2F%2Fopen.demonii.com%3A1337&amp;tr=udp%3A%2F%2Ftracker.coppersurfer.tk%3A6969&amp;tr=udp%3A%2F%2Fexodus.desync.com%3A6969","seeders":12,"leechers":1,"uploader":"noriegaRJ","files":-1,"time":1399596499,"description":"Title: Historia de la meva mort aka Story of My Death\n\n\nIMDB Link:                              &lt;a href=&quot;\nhttp://www.imdb.com/title/tt3102458/&quot; rel=&quot;nofollow&quot; target=&quot;_NEW&quot;&gt;\nhttp://www.imdb.com/title/tt3102458/&lt;/a&gt;\n\n\nSOFT SUBTITLE IN BRAZILIAN PORTUGUESE.\n\n\nPlot: Casanova, a mature Marquis always accompanied by his servant and reputed for his spectacular sexual conquests, arrive in a small peasant village surrounded by thick forests. There, he will encounter the mysterious Count Dracula. A libertine poem, lost somewhere between the 18th and the 19th centuries, where mythological characters walk through magnificent landscapes in a strange and erotic atmosphere.\n\nA film by Albert Serra, won of Golden Leopard in the Locarno International Film Festival.\n\n\n\nGeneral\nComplete name                            : Historia de La Meva Mort, Albert Serra, 2013\nFormat                                   : Matroska\nFormat version                           : Version 4 / Version 2\nFile size                                : 1.97 GiB\nDuration                                 : 2h 24mn\nOverall bit rate                         : 1 958 Kbps\nEncoded date                             : UTC 2014-04-02 11:23:18\nWriting application                      : mkvmerge v6.8.0 ('Theme for Great Cities') 64bit built on Mar  2 2014 21:34:26\nWriting library                          : libebml v1.3.0 + libmatroska v1.4.1\n\nVideo\nID                                       : 1\nFormat                                   : AVC\nFormat/Info                              : Advanced Video Codec\nFormat profile                           : &lt;a class=&quot;__cf_email__&quot; href=&quot;/cdn-cgi/l/email-protection&quot; data-cfemail=&quot;7a32131d123a364e544b&quot;&gt;[email&amp;#160;protected]&lt;/a&gt;&lt;script cf-hash='f9e31' type=&quot;text/javascript&quot;&gt;\n/* &lt;![CDATA[ */!function(){try{var t=&quot;currentScript&quot;in document?document.currentScript:function(){for(var t=document.getElementsByTagName(&quot;script&quot;),e=t.length;e--;)if(t[e].getAttribute(&quot;cf-hash&quot;))return t[e]}();if(t&amp;&amp;t.previousSibling){var e,r,n,i,c=t.previousSibling,a=c.getAttribute(&quot;data-cfemail&quot;);if(a){for(e=&quot;&quot;,r=parseInt(a.substr(0,2),16),n=2;a.length-n;n+=2)i=parseInt(a.substr(n,2),16)^r,e+=String.fromCharCode(i);e=document.createTextNode(e),c.parentNode.replaceChild(e,c)}}}catch(u){}}();/* ]]&gt; */&lt;/script&gt;\nFormat settings, CABAC                   : Yes\nFormat settings, ReFrames                : 8 frames\nCodec ID                                 : V_MPEG4/ISO/AVC\nDuration                                 : 2h 24mn\nBit rate                                 : 1 700 Kbps\nWidth                                    : 720 pixels\nHeight                                   : 436 pixels\nDisplay aspect ratio                     : 2.35:1\nOriginal display aspect ratio            : 2.35:1\nFrame rate mode                          : Constant\nFrame rate                               : 25.000 fps\nColor space                              : YUV\nChroma subsampling                       : 4:2:0\nBit depth                                : 8 bits\nScan type                                : Progressive\nBits/(Pixel*Frame)                       : 0.217\nStream size                              : 1.68 GiB (85%)\nWriting library                          : x264 core 142 r2389\nDefault                                  : Yes\nForced                                   : No\n\nAudio\nID                                       : 2\nFormat                                   : AC-3\nFormat/Info                              : Audio Coding 3\nMode extension                           : CM (complete main)\nFormat settings, Endianness              : Big\nCodec ID                                 : A_AC3\nDuration                                 : 2h 24mn\nBit rate mode                            : Constant\nBit rate                                 : 256 Kbps\nChannel count                            : 2 channels\nChannel positions                        : Front: L R\nSampling rate                            : 48.0 KHz\nBit depth                                : 16 bits\nCompression mode                         : Lossy\nDelay relative to video                  : -80ms\nStream size                              : 264 MiB (13%)\nLanguage                                 : Catalan\nDefault                                  : Yes\nForced                                   : No\n\nText #1\nID                                       : 3\nFormat                                   : UTF-8\nCodec ID                                 : S_TEXT/UTF8\nCodec ID/Info                            : UTF-8 Plain Text\nLanguage                                 : English\nDefault                                  : No\nForced                                   : No\n\nText #2\nID                                       : 4\nFormat                                   : UTF-8\nCodec ID                                 : S_TEXT/UTF8\nCodec ID/Info                            : UTF-8 Plain Text\nLanguage                                 : French\nDefault                                  : No\nForced                                   : No\n\n\n\nThanks to those helping me seed. Leechers remember, the community depends on you. If nobody shares, the freebies go away. Remember, the only reason you can download this free movie is because others are generous enough to keep sharing it with you. If nobody shares, everybody loses, so even if its for an extra hour or two after you get it, remember, others want to see it too, and they can't without you.\n\n\nSEE MY OTHERS UPLOADS:                                                      &lt;a href=&quot;\nhttp://thepiratebay.se/user/noriegaRJ&quot; rel=&quot;nofollow&quot; target=&quot;_NEW&quot;&gt;\nhttp://thepiratebay.se/user/noriegaRJ&lt;/a&gt;\n\nAND SEE THIS ANOTHERS UPLOADS FROM &quot;HORiZON-ArtSubs&quot;:      &lt;a href=&quot;\nhttp://thepiratebay.se/user/artsubs&quot; rel=&quot;nofollow&quot; target=&quot;_NEW&quot;&gt;\nhttp://thepiratebay.se/user/artsubs&lt;/a&gt;      &lt;a href=&quot;\nhttp://thepiratebay.se/user/lletaif&quot; rel=&quot;nofollow&quot; target=&quot;_NEW&quot;&gt;\nhttp://thepiratebay.se/user/lletaif&lt;/a&gt;\t\t\t\t\t","torrent":{"xt":"urn:btih:9cdea62f862e245084eb4a52473baf35032e9116","amp;dn":"Historia+de+La+Meva+Mort%2C+Albert+Serra%2C+2013","amp;tr":["udp%3A%2F%2Ftracker.openbittorrent.com%3A80","udp%3A%2F%2Fopen.demonii.com%3A1337","udp%3A%2F%2Ftracker.coppersurfer.tk%3A6969","udp%3A%2F%2Fexodus.desync.com%3A6969"],"infoHash":"9cdea62f862e245084eb4a52473baf35032e9116","infoHashBuffer":{"type":"Buffer","data":[156,222,166,47,134,46,36,80,132,235,74,82,71,59,175,53,3,46,145,22]},"announce":[],"urlList":[]}}